# xmcd
#
# Track frame offsets:
#	150
#	19932
#	38625
#	50637
#	68403
#	83709
#	97587
#	110330
#	129676
#	148952
#	166579
#	186717
#	198566
#	215078
#	232218
#	242560
#
# Disc length: 3450 seconds
#
# Revision: 0
# Processed by: cddbd v1.5.2PL0 Copyright (c) Steve Scherf et al.
# Submitted via: audiograbber 1.83.01
#
DISCID=e40d7810
DTITLE=—борник -  Together CD2
DYEAR=1900
DGENRE=
TTITLE0=Kool and The Gang - Joanna
TTITLE1=Barry White - Never, Never Gonna Give You Up
TTITLE2=The Platters - Smoke Gats In Your Eyes
TTITLE3=Phil Carmen - On May Way In L.A.
TTITLE4=Flying Pickets - Only You
TTITLE5=Gilberto O`Sullivan - Clair
TTITLE6=Percy Sledge - When A Man Loves A Woman
TTITLE7=Gary Wright - Dream Weaver
TTITLE8=Dionne Warwick - Heartbreaker
TTITLE9=Bobby McFerrin - Don`t Worry Be Happy
TTITLE10=Eric Burdon - House Of The Rising Sun
TTITLE11=Paul Anka - Put Your Head On My Shoulder
TTITLE12=L.Hazlewood and N.Sinatra - Summertime
TTITLE13=Gordon Lightfood - If You Could Read My Mind
TTITLE14=Louis Armstrong - What A Wonderful World
TTITLE15=Gene Pitney - Something Gotton Hold Of My Heart
EXTD=
EXTT0=
EXTT1=
EXTT2=
EXTT3=
EXTT4=
EXTT5=
EXTT6=
EXTT7=
EXTT8=
EXTT9=
EXTT10=
EXTT11=
EXTT12=
EXTT13=
EXTT14=
EXTT15=
PLAYORDER=
